<?xml version="1.0" encoding="utf-8"?>
<!-- Generator: Adobe Illustrator 17.0.0, SVG Export Plug-In . SVG Version: 6.00 Build 0)  -->
<!DOCTYPE svg PUBLIC "-//W3C//DTD SVG 1.1//EN" "http://www.w3.org/Graphics/SVG/1.1/DTD/svg11.dtd" [
	<!ENTITY ns_extend "http://ns.adobe.com/Extensibility/1.0/">
	<!ENTITY ns_ai "http://ns.adobe.com/AdobeIllustrator/10.0/">
	<!ENTITY ns_graphs "http://ns.adobe.com/Graphs/1.0/">
	<!ENTITY ns_vars "http://ns.adobe.com/Variables/1.0/">
	<!ENTITY ns_imrep "http://ns.adobe.com/ImageReplacement/1.0/">
	<!ENTITY ns_sfw "http://ns.adobe.com/SaveForWeb/1.0/">
	<!ENTITY ns_custom "http://ns.adobe.com/GenericCustomNamespace/1.0/">
	<!ENTITY ns_adobe_xpath "http://ns.adobe.com/XPath/1.0/">
]>
<svg version="1.1" id="Livello_1" xmlns:x="&ns_extend;" xmlns:i="&ns_ai;" xmlns:graph="&ns_graphs;"
	 xmlns="http://www.w3.org/2000/svg" xmlns:xlink="http://www.w3.org/1999/xlink" x="0px" y="0px" width="710.236px" height="641px"
	 viewBox="0 0 710.236 641" enable-background="new 0 0 710.236 641" xml:space="preserve">
<metadata>
	<sfw  xmlns="&ns_sfw;">
		<slices></slices>
		<sliceSourceBounds  width="711.64" height="641" x="122.978" y="-40" bottomLeftOrigin="true"></sliceSourceBounds>
	</sfw>
</metadata>
<path fill="none" stroke="#333333" stroke-width="4" stroke-miterlimit="10" d="M412.734,163.949
	C476.348,88,641.084,100,709.925,100"/>
<path fill="none" stroke="#333333" stroke-width="4" stroke-miterlimit="10" d="M412.734,163.949
	c-48.952,49.397-97.385,107.967-174.621,105.381"/>
<path fill="none" stroke="#333333" stroke-width="4" stroke-miterlimit="10" d="M238.576,269.331
	c-125.515,0-214.555,39.249-238.108,101.959"/>
<g enable-background="new    ">
	<path d="M476.348,220.265c0,41.507-33.649,75.156-74.955,75.56h-38.082V144.503h38.082
		C442.699,144.906,476.348,178.757,476.348,220.265z M457.408,220.265c0-31.03-25.187-56.418-56.015-56.821h-19.142v113.44h19.142
		C432.222,276.48,457.408,251.294,457.408,220.265z"/>
	<path d="M673.001,193.063v102.358h-18.94V193.063c0-17.529-13.903-31.231-31.231-31.231s-31.029,13.702-31.433,30.627v102.963
		h-18.94V192.458c-0.201-16.925-14.104-30.627-31.433-30.627c-16.926,0-31.029,13.702-31.231,30.426v80.194
		c-1.209,26.597-23.172,47.955-50.172,47.955v-18.94c16.926,0,30.829-13.5,31.231-30.426v-78.783
		c0.403-27,22.769-49.365,50.172-49.365c16.926,0,31.836,8.261,40.903,21.156c9.269-12.896,23.978-21.156,40.902-21.156
		C650.433,142.892,673.001,165.257,673.001,193.063z"/>
</g>
<g enable-background="new    ">
	<path d="M336.805,358.281c-6.233,0-11.661,2.901-16.28,8.704c-4.729,5.911-7.092,13.165-7.092,21.761v39.652h-5.964v-75.92h5.964
		v16.28c1.073-2.04,2.337-4.163,3.788-6.367c1.451-2.201,3.196-4.002,5.239-5.399c4.296-3.008,8.865-4.514,13.701-4.514h7.092v5.803
		H336.805z"/>
	<path d="M409.825,418.243c-7.415,7.846-16.497,11.768-27.241,11.768c-10.854,0-19.987-3.813-27.402-11.444
		c-7.415-7.737-11.122-17.087-11.122-28.047c0-10.853,3.708-20.149,11.122-27.886c7.415-7.737,16.494-11.605,27.241-11.605
		c10.853,0,19.987,3.868,27.402,11.605c7.521,7.845,11.283,17.141,11.283,27.886C421.108,401.157,417.346,410.4,409.825,418.243z
		 M414.66,390.6c0-9.004-3.063-16.882-9.188-23.637s-13.756-10.132-22.889-10.132c-9.135,0-16.764,3.324-22.889,9.971
		c-6.234,6.86-9.349,14.794-9.349,23.798c0,8.898,3.063,16.724,9.188,23.479c6.125,6.755,13.754,10.13,22.889,10.13
		c9.24,0,16.869-3.322,22.889-9.972c6.125-6.538,9.188-14.416,9.188-23.637H414.66z"/>
	<path d="M435.292,458.702c-4.729,3.868-10.424,5.803-17.086,5.803h-3.546v-5.803h3.546c5.158,0,9.455-1.507,12.896-4.514
		c4.19-3.546,6.286-8.543,6.286-14.99v-87.203h6.447v88.814C443.835,448.438,440.987,454.402,435.292,458.702z M443.997,334.265
		c-0.968,0.967-2.151,1.45-3.547,1.45c-1.397,0-2.526-0.428-3.385-1.289c-0.967-0.968-1.45-2.148-1.45-3.547
		c0-1.289,0.428-2.362,1.289-3.224c0.967-0.967,2.148-1.45,3.546-1.45c1.182,0,2.31,0.431,3.385,1.289
		c0.968,0.861,1.451,1.99,1.451,3.385C445.286,332.277,444.855,333.405,443.997,334.265z"/>
	<path d="M527.651,418.728c-7.522,7.522-16.603,11.283-27.241,11.283c-11.714,0-21.438-3.708-29.175-11.122
		c-7.737-7.521-11.605-16.925-11.605-28.208c0-11.067,3.652-20.416,10.961-28.047c7.415-7.737,16.869-11.605,28.369-11.605
		c7.415,0,13.968,1.667,19.665,4.996c5.908,3.332,10.639,7.846,14.185,13.54l-60.445,41.265c0.967,1.289,1.986,2.473,3.063,3.546
		c6.23,6.556,14.076,9.833,23.533,9.833c9.349,0,17.191-3.116,23.533-9.35c6.448-6.23,9.672-13.807,9.672-22.728h6.77
		C538.934,402.125,535.172,410.99,527.651,418.728z M523.622,368.437c-6.125-7.737-14.293-11.605-24.501-11.605
		c-9.565,0-17.464,3.385-23.694,10.154c-6.342,6.986-9.511,15.046-9.511,24.179c0,2.579,0.348,5.133,1.048,7.656
		c0.698,2.526,1.531,4.863,2.499,7.012l53.998-37.396H523.622z"/>
	<path d="M588.9,428.398c-11.283,0-20.526-3.599-27.725-10.8c-7.414-7.307-11.122-16.603-11.122-27.886
		c0-11.497,3.652-20.793,10.961-27.886c7.198-7.197,16.494-10.799,27.886-10.799h11.283v6.286h-10.961
		c-9.457,0-17.303,3.01-23.533,9.026c-6.125,6.02-9.188,13.81-9.188,23.372c0,9.565,3.007,17.355,9.026,23.373
		c5.908,5.911,13.807,8.865,23.694,8.865h10.961v6.447H588.9z"/>
	<path d="M638.061,428.398c-7.31,0-12.79-1.935-16.441-5.803c-3.763-3.964-5.642-9.271-5.642-15.917v-48.397h-7.737v-5.803h7.737
		v-20.954h5.964v20.954h26.918v5.803h-26.918v49.002c0,4.729,1.289,8.437,3.868,11.121c2.793,2.796,6.448,4.191,10.961,4.191h12.089
		v5.803H638.061z"/>
</g>
<g enable-background="new    ">
	<path fill="#333333" d="M183.353,431.103c5.14,5.071,10.974,8.96,17.504,11.669c6.528,2.709,13.404,4.063,20.629,4.063
		c14.863,0,27.574-5.244,38.133-15.732c10.487-10.558,15.732-23.269,15.732-38.133c0-14.863-5.245-27.574-15.732-38.133
		c-4.933-4.793-10.663-8.612-17.191-11.461c-6.529-2.848-13.51-4.271-20.942-4.271c-7.433,0-14.414,1.424-20.942,4.271
		c-6.529,2.849-12.226,6.668-17.087,11.461c-10.489,10.559-15.732,23.27-15.732,38.133v100.854h-16.67V392.97
		c0-9.654,1.839-18.771,5.522-27.35c3.681-8.578,8.716-16.062,15.107-22.453c6.39-6.39,13.857-11.425,22.4-15.107
		c8.543-3.681,17.676-5.521,27.401-5.521c9.724,0,18.858,1.841,27.402,5.521c8.543,3.683,16.009,8.718,22.4,15.107
		c6.39,6.392,11.443,13.875,15.16,22.453c3.715,8.579,5.574,17.695,5.574,27.35c0,9.725-1.859,18.876-5.574,27.453
		c-3.717,8.579-8.77,16.029-15.16,22.349c-6.391,6.392-13.857,11.427-22.4,15.107c-8.543,3.683-17.678,5.521-27.402,5.521
		c-9.309,0-18.269-1.771-26.88-5.313c-8.613-3.542-16.253-8.647-22.921-15.315L183.353,431.103z"/>
</g>
<g enable-background="new    ">
	<path d="M175.223,437.13c6.122,6.04,13.071,10.672,20.848,13.898c7.775,3.227,15.966,4.84,24.571,4.84
		c17.703,0,32.843-6.246,45.419-18.738c12.491-12.574,18.739-27.714,18.739-45.419c0-17.703-6.248-32.843-18.739-45.419
		c-5.875-5.709-12.7-10.258-20.476-13.65c-7.777-3.392-16.092-5.088-24.943-5.088c-8.854,0-17.168,1.696-24.943,5.088
		c-7.777,3.393-14.562,7.941-20.352,13.65c-12.493,12.576-18.738,27.716-18.738,45.419v120.124h-19.855V391.711
		c0-11.498,2.191-22.356,6.577-32.575c4.384-10.217,10.381-19.13,17.994-26.743c7.61-7.61,16.504-13.607,26.68-17.993
		c10.176-4.385,21.054-6.577,32.637-6.577c11.582,0,22.461,2.192,32.637,6.577c10.176,4.386,19.068,10.383,26.681,17.993
		c7.61,7.613,13.629,16.526,18.056,26.743c4.425,10.219,6.639,21.077,6.639,32.575c0,11.583-2.214,22.482-6.639,32.699
		c-4.427,10.218-10.445,19.091-18.056,26.618c-7.613,7.612-16.505,13.609-26.681,17.994c-10.176,4.386-21.056,6.577-32.637,6.577
		c-11.087,0-21.759-2.11-32.017-6.329c-10.259-4.22-19.359-10.3-27.301-18.242L175.223,437.13z"/>
</g>
<rect x="0.736" y="0.5" display="none" fill="none" stroke="#000000" stroke-miterlimit="10" width="709" height="640"/>
</svg>
